<!-- Generated by IcoMoon.io -->
<svg version="1.1" xmlns="http://www.w3.org/2000/svg" width="36" height="32" viewBox="0 0 36 32">
<path fill="#1185db" d="M17.675 14.371c-0.039 0.609-0.543 1.089-1.159 1.089-0.451 0-0.842-0.257-1.035-0.633l-0.003-0.007-2.073-2.634c-0.338-0.427-0.857-0.699-1.439-0.699-0.428 0-0.821 0.147-1.133 0.393l0.004-0.003-2.681 2.108c-0.215 0.25-0.531 0.408-0.885 0.408-0.642 0-1.163-0.521-1.163-1.163 0-0.069 0.006-0.137 0.018-0.203l-0.001 0.007c0.001-0.028 0.002-0.060 0.002-0.093 0-1.175-0.953-2.128-2.128-2.128s-2.128 0.953-2.128 2.128c0 1.030 0.732 1.89 1.704 2.086l0.014 0.002c0.613 0.037 1.096 0.543 1.096 1.162 0 0.453-0.258 0.845-0.635 1.037l-0.007 0.003-2.64 2.085c-0.429 0.338-0.702 0.857-0.702 1.439 0 0.429 0.148 0.823 0.395 1.135l-0.003-0.004 2.083 2.641c0.254 0.211 0.414 0.527 0.414 0.88 0 0.632-0.512 1.144-1.144 1.144-0.070 0-0.139-0.006-0.205-0.018l0.007 0.001c-0.029-0.001-0.062-0.002-0.096-0.002-1.169 0-2.116 0.947-2.116 2.116s0.947 2.116 2.116 2.116c1.023 0 1.877-0.726 2.073-1.691l0.002-0.014c0.038-0.603 0.536-1.077 1.145-1.077 0.451 0 0.841 0.26 1.028 0.639l0.003 0.007 2.104 2.67c0.346 0.432 0.874 0.707 1.466 0.707 0.437 0 0.839-0.15 1.158-0.401l-0.004 0.003 1.867-1.475c-0.56-0.27-1.029-0.647-1.396-1.108l-0.006-0.008c-0.497-0.637-0.797-1.448-0.797-2.33 0-1.234 0.588-2.331 1.5-3.026l0.009-0.007 0.062-0.044 0.052-0.045c0.652-0.535 1.494-0.859 2.412-0.859 1.198 0 2.266 0.552 2.966 1.415l0.006 0.007c0.358 0.457 0.621 1.006 0.748 1.605l0.005 0.026 1.959-1.542 0.021-0.022c0.429-0.338 0.702-0.857 0.702-1.439 0-0.429-0.148-0.823-0.395-1.135l0.003 0.004-2.124-2.698c-0.25-0.214-0.408-0.53-0.408-0.882 0-0.64 0.518-1.158 1.158-1.158 0.070 0 0.139 0.006 0.206 0.018l-0.007-0.001c0.025 0.001 0.055 0.002 0.085 0.002 1.169 0 2.117-0.948 2.117-2.117s-0.948-2.117-2.117-2.117c-1.021 0-1.873 0.723-2.073 1.685l-0.002 0.014z"></path>
<path fill="#0072c6" d="M31.339 3.622c-0.038 0.611-0.543 1.091-1.16 1.091-0.45 0-0.84-0.256-1.033-0.63l-0.003-0.006-2.093-2.648c-0.338-0.428-0.856-0.7-1.438-0.7-0.428 0-0.822 0.147-1.133 0.394l0.004-0.003-2.64 2.080c-0.211 0.257-0.529 0.42-0.886 0.42-0.632 0-1.144-0.512-1.144-1.144 0-0.072 0.007-0.143 0.020-0.212l-0.001 0.007c0.001-0.026 0.002-0.056 0.002-0.087 0-1.169-0.948-2.117-2.117-2.117s-2.117 0.948-2.117 2.117c0 1.020 0.721 1.872 1.682 2.072l0.014 0.002c0.604 0.035 1.080 0.533 1.080 1.143 0 0.451-0.261 0.842-0.641 1.028l-0.007 0.003-2.671 2.103c-0.434 0.345-0.709 0.873-0.709 1.466 0 0.438 0.151 0.841 0.403 1.159l-0.003-0.004 1.475 1.872c0.268-0.562 0.645-1.033 1.106-1.403l0.008-0.006c0.638-0.498 1.451-0.798 2.335-0.798 1.236 0 2.334 0.587 3.031 1.498l0.007 0.009 0.082 0.113c0.535 0.652 0.859 1.494 0.859 2.412 0 1.195-0.549 2.262-1.409 2.961l-0.007 0.006c-0.459 0.36-1.011 0.623-1.614 0.75l-0.026 0.005 1.537 1.95 0.010 0.007 0.021 0.029c0.338 0.428 0.856 0.7 1.439 0.7 0.428 0 0.822-0.147 1.133-0.393l-0.004 0.003 2.702-2.124c0.213-0.252 0.53-0.412 0.884-0.412 0.638 0 1.155 0.517 1.155 1.155 0 0.071-0.006 0.141-0.019 0.208l0.001-0.007c-0.001 0.026-0.002 0.057-0.002 0.088 0 1.171 0.949 2.12 2.12 2.12s2.12-0.949 2.12-2.12c0-1.019-0.719-1.87-1.678-2.074l-0.014-0.002c-0.612-0.036-1.094-0.541-1.094-1.158 0-0.451 0.258-0.842 0.634-1.034l0.007-0.003 2.64-2.080c0.429-0.338 0.702-0.857 0.702-1.44 0-0.429-0.148-0.823-0.395-1.135l0.003 0.004-2.114-2.676c-0.247-0.215-0.402-0.53-0.402-0.881 0-0.644 0.522-1.165 1.165-1.165 0.069 0 0.137 0.006 0.203 0.018l-0.007-0.001c0.027 0.001 0.059 0.002 0.090 0.002 1.176 0 2.129-0.953 2.129-2.129s-0.953-2.129-2.129-2.129c-1.034 0-1.895 0.736-2.089 1.713l-0.002 0.014z"></path>
</svg>
