<!-- Generated by IcoMoon.io -->
<svg version="1.1" xmlns="http://www.w3.org/2000/svg" width="35" height="32" viewBox="0 0 35 32">
<path fill="#0072c6" d="M33.19 32h-30.929c-1.427-0.238-2.379-1.546-2.141-2.974 0-0.238 0.119-0.476 0.238-0.714 0.714-1.19 14.513-25.219 15.703-27.361 0.476-0.952 1.546-1.309 2.498-0.833 0.357 0.238 0.714 0.476 0.833 0.833 0.833 1.546 14.751 25.576 15.703 27.361 0.714 1.309-0.357 3.688-1.903 3.688z"></path>
<path fill="#fff" d="M17.606 24.030c1.19 0 2.26 0.952 2.26 2.141s-0.952 2.26-2.26 2.26c-1.19 0-2.26-0.952-2.26-2.26 0 0 0 0 0 0 0.119-1.19 1.071-2.141 2.26-2.141z"></path>
<path fill="#fff" d="M20.461 10.706l-1.309 10.825h-2.855l-1.428-10.825z"></path>
</svg>
