<!-- Generated by IcoMoon.io -->
<svg version="1.1" xmlns="http://www.w3.org/2000/svg" width="32" height="32" viewBox="0 0 32 32">
<path fill="#0072c6" d="M32 16c0 8.837-7.163 16-16 16s-16-7.163-16-16c0-8.837 7.163-16 16-16s16 7.163 16 16z"></path>
<path fill="#fff" d="M21.997 17.809h-4.207v4.236c0 0.982-0.796 1.778-1.778 1.778s-1.778-0.796-1.778-1.778v0-4.23h-4.231c-0.982 0-1.778-0.796-1.778-1.778s0.796-1.778 1.778-1.778v0h4.231v-4.22c0-0.982 0.796-1.778 1.778-1.778s1.778 0.796 1.778 1.778v0 4.215h4.207c0.982 0 1.778 0.796 1.778 1.778s-0.796 1.778-1.778 1.778v0z"></path>
</svg>
