<!-- Generated by IcoMoon.io -->
<svg version="1.1" xmlns="http://www.w3.org/2000/svg" width="36" height="32" viewBox="0 0 36 32">
<path fill="#59b4d9" d="M31.384 3.618c-0.059 0.602-0.563 1.069-1.175 1.069-0.441 0-0.826-0.242-1.029-0.601l-0.003-0.006-2.079-2.566c-0.341-0.423-0.86-0.691-1.44-0.691-0.426 0-0.818 0.144-1.13 0.386l0.004-0.003-2.643 1.976c-1.129 0.873-2.079 0.154-2.027-0.924 0.005-0.051 0.007-0.11 0.007-0.169 0-1.12-0.908-2.027-2.027-2.027-0.54 0-1.030 0.211-1.394 0.555l0.001-0.001c-0.51 0.373-0.838 0.969-0.838 1.642 0 1.008 0.735 1.844 1.699 2.001l0.012 0.002c1.078 0.205 1.54 1.309 0.436 2.181l-2.566 2.104c-0.417 0.346-0.681 0.865-0.681 1.445 0 0.423 0.14 0.813 0.376 1.126l-0.003-0.005 1.463 1.873c0.291-0.554 0.67-1.022 1.122-1.406l0.007-0.006c0.636-0.491 1.445-0.786 2.323-0.786 1.236 0 2.335 0.586 3.034 1.496l0.007 0.009c0.534 0.652 0.858 1.495 0.858 2.413 0 1.199-0.552 2.269-1.415 2.97l-0.007 0.006c-0.446 0.423-1 0.736-1.617 0.893l-0.025 0.005 1.54 1.95c0.337 0.428 0.855 0.701 1.436 0.701 0.429 0 0.823-0.148 1.134-0.396l-0.004 0.003 2.694-2.13c1.129-0.872 2.079-0.154 2.027 0.949-0.001 0.025-0.002 0.054-0.002 0.083 0 1.176 0.954 2.13 2.13 2.13s2.13-0.954 2.13-2.13c0-1.021-0.719-1.875-1.678-2.082l-0.014-0.003c-1.078-0.18-1.565-1.309-0.436-2.181l2.566-2.079c0.412-0.351 0.671-0.869 0.671-1.449 0-0.42-0.136-0.808-0.367-1.123l0.004 0.005-2.13-2.566c-0.872-1.103 0-2.079 0.975-2.027 0.073 0.009 0.158 0.015 0.244 0.015 1.134 0 2.053-0.919 2.053-2.053 0-0.542-0.21-1.035-0.553-1.401l0.001 0.001c-0.378-0.511-0.978-0.838-1.655-0.838-0.994 0-1.824 0.707-2.013 1.646l-0.002 0.013z"></path>
<path fill="#0072c6" d="M17.835 14.37c-0.18 1.078-1.309 1.565-2.181 0.462l-2.079-2.566c-0.337-0.428-0.854-0.701-1.436-0.701-0.429 0-0.823 0.148-1.134 0.396l0.004-0.003-2.566 2.104c-1.103 0.873-2.079 0-2.027-0.949 0.007-0.062 0.010-0.135 0.010-0.208 0-1.148-0.931-2.079-2.079-2.079-0.526 0-1.007 0.196-1.373 0.518l0.002-0.002c-0.547 0.38-0.901 1.005-0.901 1.713 0 1.049 0.777 1.917 1.788 2.058l0.011 0.001c0.602 0.059 1.069 0.563 1.069 1.175 0 0.441-0.242 0.826-0.601 1.029l-0.006 0.003-2.566 2.079c-0.434 0.331-0.711 0.849-0.711 1.432 0 0.432 0.152 0.828 0.406 1.138l-0.003-0.003 2.079 2.566c0.873 1.103 0.154 2.079-0.924 2.002-0.073-0.009-0.158-0.015-0.244-0.015-1.134 0-2.053 0.919-2.053 2.053 0 0.542 0.21 1.035 0.553 1.401l-0.001-0.001c0.367 0.562 0.992 0.928 1.704 0.928 1.049 0 1.912-0.797 2.017-1.818l0.001-0.009c0.205-1.078 1.309-1.54 2.181-0.436l2.104 2.566c0.346 0.417 0.865 0.681 1.445 0.681 0.423 0 0.813-0.14 1.126-0.376l-0.005 0.003 1.873-1.463c-1.35-0.602-2.274-1.933-2.274-3.479 0-1.138 0.501-2.16 1.294-2.856l0.004-0.004c0.651-0.541 1.496-0.868 2.417-0.868 1.2 0 2.27 0.556 2.966 1.426l0.006 0.008c0.36 0.45 0.621 0.996 0.74 1.593l0.004 0.024 1.95-1.54c0.423-0.341 0.691-0.86 0.691-1.44 0-0.426-0.144-0.818-0.386-1.13l0.003 0.004-2.13-2.566c-0.872-1.103-0.154-2.079 0.949-2.027 0.276 0.143 0.603 0.227 0.949 0.227 1.16 0 2.1-0.94 2.1-2.1 0-0.813-0.463-1.519-1.139-1.868l-0.012-0.005c-0.379-0.468-0.954-0.764-1.598-0.764-1.005 0-1.841 0.722-2.018 1.675l-0.002 0.013z"></path>
</svg>
